<svg width="17" height="21" viewBox="0 0 17 21" fill="none" xmlns="http://www.w3.org/2000/svg">
<path d="M4.90982 10.5881C5.05065 10.5356 5.20209 10.5083 5.3552 10.5078C5.50831 10.5074 5.65998 10.5337 5.80124 10.5853C5.9425 10.6368 6.07048 10.7126 6.17762 10.8081C6.28476 10.9036 6.36889 11.0168 6.42503 11.1412C6.48116 11.2656 6.50817 11.3985 6.50445 11.5321C6.50074 11.6657 6.46637 11.7974 6.40339 11.9192C6.34041 12.041 6.25008 12.1506 6.13776 12.2415C6.02543 12.3323 5.89339 12.4025 5.74943 12.4481C4.98375 12.7114 4.32659 13.1699 3.86346 13.7638C3.40033 14.3577 3.15267 15.0596 3.15271 15.7781V17.5181C3.15271 17.7833 3.27339 18.0376 3.4882 18.2252C3.70301 18.4127 3.99436 18.5181 4.29815 18.5181H13.4617C13.7655 18.5181 14.0569 18.4127 14.2717 18.2252C14.4865 18.0376 14.6072 17.7833 14.6072 17.5181V15.8711C14.6073 15.1295 14.3493 14.4055 13.8673 13.7949C13.3854 13.1843 12.7022 12.716 11.9085 12.4521C11.7636 12.4082 11.6304 12.3394 11.5165 12.2497C11.4027 12.16 11.3107 12.0513 11.2459 11.9299C11.1811 11.8086 11.1448 11.6772 11.1393 11.5434C11.1338 11.4096 11.1591 11.2763 11.2137 11.1512C11.2683 11.0261 11.3511 10.9119 11.4572 10.8152C11.5633 10.7186 11.6906 10.6416 11.8315 10.5887C11.9723 10.5358 12.1239 10.5081 12.2772 10.5074C12.4305 10.5066 12.5825 10.5326 12.7241 10.5841C13.9515 10.9922 15.0079 11.7164 15.7533 12.6606C16.4988 13.6047 16.898 14.7244 16.8981 15.8711V17.5181C16.8981 18.3137 16.536 19.0768 15.8916 19.6394C15.2471 20.202 14.3731 20.5181 13.4617 20.5181H4.29815C3.38678 20.5181 2.51273 20.202 1.8683 19.6394C1.22386 19.0768 0.861816 18.3137 0.861816 17.5181L0.861816 15.7781C0.861974 14.6582 1.24815 13.5643 1.9701 12.6387C2.69206 11.7131 3.71638 10.9985 4.90982 10.5881ZM8.87994 0.518066C10.0951 0.518066 11.2605 0.939494 12.1197 1.68964C12.979 2.43978 13.4617 3.4572 13.4617 4.51807V6.51807C13.4617 7.57893 12.979 8.59635 12.1197 9.34649C11.2605 10.0966 10.0951 10.5181 8.87994 10.5181C7.66477 10.5181 6.49938 10.0966 5.64013 9.34649C4.78087 8.59635 4.29815 7.57893 4.29815 6.51807V4.51807C4.29815 3.4572 4.78087 2.43978 5.64013 1.68964C6.49938 0.939494 7.66477 0.518066 8.87994 0.518066ZM8.87994 2.51807C8.27235 2.51807 7.68966 2.72878 7.26003 3.10385C6.83041 3.47893 6.58904 3.98763 6.58904 4.51807V6.51807C6.58904 7.0485 6.83041 7.55721 7.26003 7.93228C7.68966 8.30735 8.27235 8.51807 8.87994 8.51807C9.48752 8.51807 10.0702 8.30735 10.4998 7.93228C10.9295 7.55721 11.1708 7.0485 11.1708 6.51807V4.51807C11.1708 3.98763 10.9295 3.47893 10.4998 3.10385C10.0702 2.72878 9.48752 2.51807 8.87994 2.51807Z" fill="#181725"/>
</svg>
