<svg width="50" height="57" viewBox="0 0 50 57" fill="none" xmlns="http://www.w3.org/2000/svg">
<path fill-rule="evenodd" clip-rule="evenodd" d="M33.8004 4.80641C34.0424 2.64482 32.5099 0.692926 30.3483 0.450956C28.1867 0.192855 26.2348 1.74146 25.9928 3.90306C25.7025 6.37115 26.1058 9.32319 26.622 12.3559C28.0577 12.7914 29.445 13.4205 30.7355 14.1626C32.1228 10.8879 33.4778 7.64553 33.8004 4.80641ZM48.98 14.2916C48.125 12.2913 45.8021 11.388 43.8018 12.243C41.1724 13.3883 38.4462 15.6305 35.7039 17.9373C36.7363 18.9536 37.7042 20.0989 38.5269 21.341C41.6402 20.9539 44.6245 20.4861 46.9313 19.4859C48.9316 18.5987 49.8511 16.2758 48.98 14.2916ZM42.35 3.74175C40.6078 2.45124 38.1397 2.80613 36.8492 4.54831C34.8812 7.19385 33.5584 11.146 32.1228 15.0014C32.6067 15.324 33.0584 15.6467 33.4939 15.9854C33.8165 16.2435 34.1553 16.5178 34.4941 16.792C37.7848 14.3078 41.2047 11.8881 43.1727 9.24253C44.4632 7.50035 44.0922 5.03225 42.35 3.74175Z" fill="white"/>
<path d="M34.8651 35.3269C33.6552 36.6335 32.3647 37.8434 30.9936 39.021C29.074 40.6825 27.1221 42.2956 25.1379 43.8443C23.0086 42.5376 21.4761 41.8762 21.218 42.215C20.9922 42.5215 21.8794 43.6507 23.4764 45.1186C18.1208 49.1031 12.4587 52.6197 6.37717 55.5072C5.42543 55.9589 4.42528 56.2815 3.44127 56.6364C3.18317 56.7332 2.90894 56.7332 2.79602 56.7493C1.24741 56.9268 0.779603 56.5073 0.844128 55.0878C1.0377 50.6678 2.40887 46.5221 3.82842 42.3924C4.21558 41.2632 4.61886 40.134 5.03827 39.0049C7.18374 40.3115 8.71621 40.989 8.97432 40.6502C9.24855 40.2792 7.95804 38.7951 5.79645 36.94C7.34505 32.9395 9.0711 29.0034 11.1037 25.2287C15.1687 28.2453 18.7822 30.2294 19.1854 29.6809C19.5887 29.1325 16.6044 26.2127 12.4909 23.1639L12.3135 23.0348C13.0233 21.825 13.7653 20.6151 14.5558 19.4376C15.5398 17.9535 16.7496 16.5984 17.9433 15.2757C19.5403 13.5174 21.6051 12.9205 23.9119 13.4367C31.3001 15.0821 36.4298 19.3246 38.8495 26.5999C39.3335 28.0839 38.8979 29.5358 38.1398 30.8747C37.6236 31.778 37.059 32.633 36.4298 33.4395C32.5261 30.5843 29.1385 28.7453 28.7513 29.2615C28.3803 29.7777 31.0742 32.4394 34.8651 35.3269Z" fill="white"/>
</svg>
