<svg width="21" height="22" viewBox="0 0 21 22" fill="none" xmlns="http://www.w3.org/2000/svg">
<path d="M3.9375 8.9375C3.9375 8.5578 4.23131 8.25 4.59375 8.25H11.1562C11.5187 8.25 11.8125 8.5578 11.8125 8.9375C11.8125 9.3172 11.5187 9.625 11.1562 9.625H4.59375C4.23131 9.625 3.9375 9.3172 3.9375 8.9375Z" fill="#181725"/>
<path d="M3.9375 13.0625C3.9375 12.6828 4.23131 12.375 4.59375 12.375H11.1562C11.5187 12.375 11.8125 12.6828 11.8125 13.0625C11.8125 13.4422 11.5187 13.75 11.1562 13.75H4.59375C4.23131 13.75 3.9375 13.4422 3.9375 13.0625Z" fill="#181725"/>
<path d="M4.59375 16.5C4.23131 16.5 3.9375 16.8078 3.9375 17.1875C3.9375 17.5672 4.23131 17.875 4.59375 17.875H11.1562C11.5187 17.875 11.8125 17.5672 11.8125 17.1875C11.8125 16.8078 11.5187 16.5 11.1562 16.5H4.59375Z" fill="#181725"/>
<path d="M2.625 0C1.17525 0 0 1.23122 0 2.75V19.25C0 20.7688 1.17525 22 2.625 22H18.375C19.8247 22 21 20.7688 21 19.25V2.75C21 1.23122 19.8247 0 18.375 0H2.625ZM18.375 1.375C19.0999 1.375 19.6875 1.99061 19.6875 2.75V4.125H1.3125V2.75C1.3125 1.99061 1.90013 1.375 2.625 1.375H18.375ZM19.6875 5.5V19.25C19.6875 20.0094 19.0999 20.625 18.375 20.625H15.75V5.5H19.6875ZM14.4375 5.5V20.625H2.625C1.90013 20.625 1.3125 20.0094 1.3125 19.25V5.5H14.4375Z" fill="#181725"/>
</svg>
