<svg width="18" height="18" viewBox="0 0 18 18" fill="none" xmlns="http://www.w3.org/2000/svg">
<path d="M17.3096 8.72205C17.3096 9.09787 17.1654 9.46118 16.896 9.72426C16.6328 9.9936 16.2694 10.1439 15.8934 10.1439H10.2288V15.8064C10.2288 16.1823 10.0785 16.5456 9.80902 16.8086C9.54584 17.0717 9.18867 17.222 8.8127 17.222C8.43674 17.222 8.0733 17.0717 7.81012 16.8086C7.54068 16.5456 7.39029 16.1823 7.39029 15.8064V10.1439H1.72571C1.34975 10.1439 0.986312 9.9936 0.723135 9.72426C0.459957 9.46118 0.30957 9.09787 0.30957 8.72205C0.30957 8.34622 0.459957 7.98918 0.723135 7.71984C0.986312 7.45676 1.34975 7.30642 1.72571 7.30642H7.39029V1.64393C7.39029 1.2681 7.54068 0.904802 7.81012 0.641722C8.0733 0.372378 8.43674 0.222046 8.8127 0.222046C9.18867 0.222046 9.54584 0.372378 9.80902 0.641722C10.0785 0.904802 10.2288 1.2681 10.2288 1.64393V7.30642H15.8934C16.2694 7.30642 16.6328 7.45676 16.896 7.71984C17.1654 7.98918 17.3096 8.34622 17.3096 8.72205Z" fill="#53B175"/>
</svg>
