<svg width="15" height="16" viewBox="0 0 15 16" fill="none" xmlns="http://www.w3.org/2000/svg">
<path d="M14.2722 13.192L14.2713 13.191L9.87946 8.9593L9.87922 8.95907L8.88761 8.01613L14.2712 2.84164C14.3842 2.73306 14.4763 2.61198 14.5344 2.4781C14.5914 2.34655 14.6261 2.20294 14.6261 2.05819C14.6261 1.90654 14.6037 1.76151 14.5337 1.62616C14.4773 1.49648 14.3975 1.36455 14.2931 1.26422L14.2932 1.26417L14.2912 1.26246C14.1793 1.16569 14.0541 1.07771 13.9157 1.02227C13.7767 0.966595 13.6166 0.944995 13.4699 0.944995C13.3202 0.944995 13.1718 0.978215 13.0255 1.03231L13.0255 1.03229L13.0242 1.03279C12.8858 1.08824 12.76 1.17641 12.6577 1.27475L6.45875 7.23288C6.35485 7.33274 6.27459 7.45424 6.21752 7.58589L6.21751 7.58588L6.21698 7.5872C6.16056 7.72819 6.12578 7.87145 6.12578 8.01632C6.12578 8.16107 6.1605 8.30468 6.21752 8.43622C6.27459 8.56787 6.35485 8.68938 6.45875 8.78924L12.6577 14.7474L12.6577 14.7474L12.6587 14.7483C12.877 14.9471 13.1632 15.0455 13.459 15.0455C13.7571 15.0455 14.0432 14.9245 14.2493 14.7263C14.4665 14.5176 14.582 14.2525 14.5823 13.9649C14.5935 13.6766 14.478 13.4007 14.2722 13.192Z" fill="#B3B3B3" stroke="#B3B3B3" stroke-width="0.1"/>
<path d="M0.718032 2.79865L0.718949 2.79955L5.11078 7.0313L5.11102 7.03153L6.10262 7.97447L0.718993 13.149C0.60602 13.2575 0.513906 13.3786 0.455867 13.5125C0.398841 13.644 0.364123 13.7877 0.364123 13.9324C0.364123 14.0841 0.386563 14.2291 0.456568 14.3644C0.51297 14.4941 0.592708 14.6261 0.697089 14.7264L0.697042 14.7264L0.699026 14.7281C0.810887 14.8249 0.936121 14.9129 1.07457 14.9683C1.21358 15.024 1.37364 15.0456 1.5203 15.0456C1.67008 15.0456 1.81843 15.0124 1.96477 14.9583L1.96477 14.9583L1.96602 14.9578C2.10447 14.9024 2.23023 14.8142 2.33255 14.7159L8.53149 8.75772C8.63539 8.65786 8.71564 8.53636 8.77271 8.40471L8.77273 8.40472L8.77326 8.4034C8.82967 8.26241 8.86445 8.11915 8.86445 7.97428C8.86445 7.82953 8.82974 7.68592 8.77271 7.55438C8.71564 7.42273 8.63539 7.30122 8.53149 7.20136L2.33255 1.24323L2.33256 1.24322L2.33157 1.24231C2.11324 1.04351 1.82699 0.945057 1.53125 0.945057C1.23318 0.945057 0.947068 1.06612 0.740899 1.26428C0.523714 1.47303 0.4082 1.73813 0.407933 2.02568C0.39669 2.31397 0.51225 2.58987 0.718032 2.79865Z" fill="#B3B3B3" stroke="#B3B3B3" stroke-width="0.1"/>
</svg>
